<?xml version="1.0" encoding="utf-8" standalone="no"?>
<!DOCTYPE svg PUBLIC "-//W3C//DTD SVG 1.1//EN"
  "http://www.w3.org/Graphics/SVG/1.1/DTD/svg11.dtd">
<svg xmlns:xlink="http://www.w3.org/1999/xlink" width="226.771654pt" height="192.755906pt" viewBox="0 0 226.771654 192.755906" xmlns="http://www.w3.org/2000/svg" version="1.1">
 <metadata>
  <rdf:RDF xmlns:dc="http://purl.org/dc/elements/1.1/" xmlns:cc="http://creativecommons.org/ns#" xmlns:rdf="http://www.w3.org/1999/02/22-rdf-syntax-ns#">
   <cc:Work>
    <dc:type rdf:resource="http://purl.org/dc/dcmitype/StillImage"/>
    <dc:date>2025-12-21T10:49:48.382342</dc:date>
    <dc:format>image/svg+xml</dc:format>
    <dc:creator>
     <cc:Agent>
      <dc:title>Matplotlib v3.10.3, https://matplotlib.org/</dc:title>
     </cc:Agent>
    </dc:creator>
   </cc:Work>
  </rdf:RDF>
 </metadata>
 <defs>
  <style type="text/css">*{stroke-linejoin: round; stroke-linecap: butt}</style>
 </defs>
 <g id="figure_1">
  <g id="patch_1">
   <path d="M 0 192.755906 
L 226.771654 192.755906 
L 226.771654 0 
L 0 0 
L 0 192.755906 
z
" style="fill: none; opacity: 0"/>
  </g>
  <g id="axes_1">
   <g id="patch_2">
    <path d="M 56.692913 136.062992 
L 170.07874 136.062992 
L 170.07874 56.692913 
L 56.692913 56.692913 
L 56.692913 136.062992 
z
" style="fill: none; opacity: 0"/>
   </g>
   <g id="line2d_1">
    <path d="M 61.846815 96.378906 
L 62.888007 92.740831 
L 63.929199 89.139844 
L 64.970391 85.612655 
L 66.011583 82.19522 
L 67.052775 78.92238 
L 68.093968 75.827498 
L 69.13516 72.942124 
L 70.176352 70.295673 
L 71.217544 67.915125 
L 72.258736 65.824747 
L 73.299928 64.045849 
L 74.341121 62.596566 
L 75.382313 61.491673 
L 76.423505 60.742434 
L 77.464697 60.356485 
L 78.505889 60.337763 
L 79.547081 60.686457 
L 80.588274 61.399013 
L 81.629466 62.468167 
L 82.670658 63.883019 
L 83.71185 65.629147 
L 84.753042 67.688749 
L 85.794234 70.040829 
L 86.835427 72.661409 
L 87.876619 75.523773 
L 88.917811 78.598743 
L 89.959003 81.854971 
L 91.000195 85.25926 
L 92.041387 88.776908 
L 93.08258 92.372053 
L 94.123772 96.008045 
L 95.164964 99.647818 
L 96.206156 103.254267 
L 97.247348 106.790625 
L 98.28854 110.220843 
L 99.329733 113.509951 
L 100.370925 116.624418 
L 101.412117 119.532496 
L 102.453309 122.204537 
L 103.494501 124.613302 
L 104.535693 126.734236 
L 105.576886 128.545716 
L 106.618078 130.029276 
L 107.65927 131.169791 
L 108.700462 131.955635 
L 109.741654 132.378797 
L 110.782846 132.434963 
L 111.824039 132.123561 
L 112.865231 131.447764 
L 113.906423 130.414462 
L 114.947615 129.034189 
L 115.988807 127.321016 
L 117.029999 125.292408 
L 118.071192 122.969045 
L 119.112384 120.374612 
L 120.153576 117.535559 
L 121.194768 114.480826 
L 122.23596 111.241556 
L 123.277152 107.850771 
L 124.318345 104.343037 
L 125.359537 100.754114 
L 126.400729 97.120588 
L 127.441921 93.479502 
L 128.483113 89.867973 
L 129.524305 86.322819 
L 130.565497 82.88018 
L 131.60669 79.575152 
L 132.647882 76.441428 
L 133.689074 73.510954 
L 134.730266 70.813604 
L 135.771458 68.376877 
L 136.81265 66.225612 
L 137.853843 64.381741 
L 138.895035 62.864061 
L 139.936227 61.688044 
L 140.977419 60.865678 
L 142.018611 60.405347 
L 143.059803 60.311744 
L 144.100996 60.585823 
L 145.142188 61.224789 
L 146.18338 62.22213 
L 147.224572 63.567677 
L 148.265764 65.247714 
L 149.306956 67.245114 
L 150.348149 69.539515 
L 151.389341 72.107526 
L 152.430533 74.922968 
L 153.471725 77.957141 
L 154.512917 81.179111 
L 155.554109 84.556034 
L 156.595302 88.053483 
L 157.636494 91.635805 
L 158.677686 95.26648 
L 159.718878 98.908496 
L 160.76007 102.524723 
L 161.801262 106.078298 
L 162.842455 109.532994 
L 163.883647 112.853593 
L 164.924839 116.006242 
" clip-path="url(#p1be843fcdc)" style="fill: none; stroke: #ff0000; stroke-width: 0.566929; stroke-linecap: square"/>
   </g>
   <g id="line2d_2">
    <path d="M 61.846815 60.300644 
L 62.888007 60.484542 
L 63.929199 61.03436 
L 64.970391 61.944493 
L 66.011583 63.205663 
L 67.052775 64.805014 
L 68.093968 66.72624 
L 69.13516 68.949757 
L 70.176352 71.452896 
L 71.217544 74.210141 
L 72.258736 77.193382 
L 73.299928 80.372207 
L 74.341121 83.71421 
L 75.382313 87.185323 
L 76.423505 90.750157 
L 77.464697 94.372374 
L 78.505889 98.015045 
L 79.547081 101.641038 
L 80.588274 105.213386 
L 81.629466 108.695672 
L 82.670658 112.052396 
L 83.71185 115.24934 
L 84.753042 118.253911 
L 85.794234 121.03548 
L 86.835427 123.565691 
L 87.876619 125.81875 
L 88.917811 127.771688 
L 89.959003 129.404597 
L 91.000195 130.700829 
L 92.041387 131.647172 
L 93.08258 132.233976 
L 94.123772 132.455261 
L 95.164964 132.30877 
L 96.206156 131.795997 
L 97.247348 130.922169 
L 98.28854 129.696195 
L 99.329733 128.130571 
L 100.370925 126.24126 
L 101.412117 124.04752 
L 102.453309 121.571717 
L 103.494501 118.839089 
L 104.535693 115.877493 
L 105.576886 112.717121 
L 106.618078 109.390192 
L 107.65927 105.930621 
L 108.700462 102.373676 
L 109.741654 98.755619 
L 110.782846 95.113332 
L 111.824039 91.483947 
L 112.865231 87.904463 
L 113.906423 84.411371 
L 114.947615 81.04028 
L 115.988807 77.825556 
L 117.029999 74.799973 
L 118.071192 71.994373 
L 119.112384 69.437357 
L 120.153576 67.154994 
L 121.194768 65.170551 
L 122.23596 63.504256 
L 123.277152 62.173098 
L 124.318345 61.190647 
L 125.359537 60.566917 
L 126.400729 60.308269 
L 127.441921 60.417337 
L 128.483113 60.893011 
L 129.524305 61.730442 
L 130.565497 62.921091 
L 131.60669 64.452822 
L 132.647882 66.310019 
L 133.689074 68.47375 
L 134.730266 70.921955 
L 135.771458 73.629679 
L 136.81265 76.569316 
L 137.853843 79.7109 
L 138.895035 83.022403 
L 139.936227 86.470068 
L 140.977419 90.018747 
L 142.018611 93.632263 
L 143.059803 97.27378 
L 144.100996 100.906175 
L 145.142188 104.492416 
L 146.18338 107.995946 
L 147.224572 111.381047 
L 148.265764 114.613211 
L 149.306956 117.659487 
L 150.348149 120.488822 
L 151.389341 123.072371 
L 152.430533 125.383797 
L 153.471725 127.399536 
L 154.512917 129.09904 
L 155.554109 130.464983 
L 156.595302 131.48344 
L 157.636494 132.144028 
L 158.677686 132.440013 
L 159.718878 132.368378 
L 160.76007 131.929854 
L 161.801262 131.128909 
L 162.842455 129.973711 
L 163.883647 128.476034 
L 164.924839 126.651148 
" clip-path="url(#p1be843fcdc)" style="fill: none; stroke: #00c800; stroke-width: 0.566929; stroke-linecap: square"/>
   </g>
   <g id="matplotlib.axis_1">
    <g id="xtick_1">
     <g id="line2d_3">
      <defs>
       <path id="m80f8760139" d="M 0 0 
L 0 2.267717 
" style="stroke: #000000; stroke-width: 0.566929"/>
      </defs>
      <g>
       <use xlink:href="#m80f8760139" x="61.846815" y="136.062992" style="stroke: #000000; stroke-width: 0.566929"/>
      </g>
     </g>
     <g id="text_1">
      <!-- 0 -->
      <g transform="translate(59.900486 144.841177) scale(0.07 -0.07)">
       <defs>
        <path id="ArialMT-30" d="M 266 2259 
Q 266 3072 433 3567 
Q 600 4063 929 4331 
Q 1259 4600 1759 4600 
Q 2128 4600 2406 4451 
Q 2684 4303 2865 4023 
Q 3047 3744 3150 3342 
Q 3253 2941 3253 2259 
Q 3253 1453 3087 958 
Q 2922 463 2592 192 
Q 2263 -78 1759 -78 
Q 1097 -78 719 397 
Q 266 969 266 2259 
z
M 844 2259 
Q 844 1131 1108 757 
Q 1372 384 1759 384 
Q 2147 384 2411 759 
Q 2675 1134 2675 2259 
Q 2675 3391 2411 3762 
Q 2147 4134 1753 4134 
Q 1366 4134 1134 3806 
Q 844 3388 844 2259 
z
" transform="scale(0.015625)"/>
       </defs>
       <use xlink:href="#ArialMT-30"/>
      </g>
     </g>
    </g>
    <g id="xtick_2">
     <g id="line2d_4">
      <g>
       <use xlink:href="#m80f8760139" x="103.078024" y="136.062992" style="stroke: #000000; stroke-width: 0.566929"/>
      </g>
     </g>
     <g id="text_2">
      <!-- 4 -->
      <g transform="translate(101.131696 144.841177) scale(0.07 -0.07)">
       <defs>
        <path id="ArialMT-34" d="M 2069 0 
L 2069 1097 
L 81 1097 
L 81 1613 
L 2172 4581 
L 2631 4581 
L 2631 1613 
L 3250 1613 
L 3250 1097 
L 2631 1097 
L 2631 0 
L 2069 0 
z
M 2069 1613 
L 2069 3678 
L 634 1613 
L 2069 1613 
z
" transform="scale(0.015625)"/>
       </defs>
       <use xlink:href="#ArialMT-34"/>
      </g>
     </g>
    </g>
    <g id="xtick_3">
     <g id="line2d_5">
      <g>
       <use xlink:href="#m80f8760139" x="144.309234" y="136.062992" style="stroke: #000000; stroke-width: 0.566929"/>
      </g>
     </g>
     <g id="text_3">
      <!-- 8 -->
      <g transform="translate(142.362906 144.841177) scale(0.07 -0.07)">
       <defs>
        <path id="ArialMT-38" d="M 1131 2484 
Q 781 2613 612 2850 
Q 444 3088 444 3419 
Q 444 3919 803 4259 
Q 1163 4600 1759 4600 
Q 2359 4600 2725 4251 
Q 3091 3903 3091 3403 
Q 3091 3084 2923 2848 
Q 2756 2613 2416 2484 
Q 2838 2347 3058 2040 
Q 3278 1734 3278 1309 
Q 3278 722 2862 322 
Q 2447 -78 1769 -78 
Q 1091 -78 675 323 
Q 259 725 259 1325 
Q 259 1772 486 2073 
Q 713 2375 1131 2484 
z
M 1019 3438 
Q 1019 3113 1228 2906 
Q 1438 2700 1772 2700 
Q 2097 2700 2305 2904 
Q 2513 3109 2513 3406 
Q 2513 3716 2298 3927 
Q 2084 4138 1766 4138 
Q 1444 4138 1231 3931 
Q 1019 3725 1019 3438 
z
M 838 1322 
Q 838 1081 952 856 
Q 1066 631 1291 507 
Q 1516 384 1775 384 
Q 2178 384 2440 643 
Q 2703 903 2703 1303 
Q 2703 1709 2433 1975 
Q 2163 2241 1756 2241 
Q 1359 2241 1098 1978 
Q 838 1716 838 1322 
z
" transform="scale(0.015625)"/>
       </defs>
       <use xlink:href="#ArialMT-38"/>
      </g>
     </g>
    </g>
   </g>
   <g id="matplotlib.axis_2">
    <g id="ytick_1">
     <g id="line2d_6">
      <defs>
       <path id="md8e63d9d59" d="M 0 0 
L -2.267717 0 
" style="stroke: #000000; stroke-width: 0.566929"/>
      </defs>
      <g>
       <use xlink:href="#md8e63d9d59" x="56.692913" y="125.241515" style="stroke: #000000; stroke-width: 0.566929"/>
      </g>
     </g>
     <g id="text_4">
      <!-- −0.8 -->
      <g transform="translate(39.106759 127.746749) scale(0.07 -0.07)">
       <defs>
        <path id="ArialMT-2212" d="M 3381 1997 
L 356 1997 
L 356 2522 
L 3381 2522 
L 3381 1997 
z
" transform="scale(0.015625)"/>
        <path id="ArialMT-2e" d="M 581 0 
L 581 641 
L 1222 641 
L 1222 0 
L 581 0 
z
" transform="scale(0.015625)"/>
       </defs>
       <use xlink:href="#ArialMT-2212"/>
       <use xlink:href="#ArialMT-30" transform="translate(58.398438 0)"/>
       <use xlink:href="#ArialMT-2e" transform="translate(114.013672 0)"/>
       <use xlink:href="#ArialMT-38" transform="translate(141.796875 0)"/>
      </g>
     </g>
    </g>
    <g id="ytick_2">
     <g id="line2d_7">
      <g>
       <use xlink:href="#md8e63d9d59" x="56.692913" y="96.378906" style="stroke: #000000; stroke-width: 0.566929"/>
      </g>
     </g>
     <g id="text_5">
      <!-- 0.0 -->
      <g transform="translate(43.195197 98.88414) scale(0.07 -0.07)">
       <use xlink:href="#ArialMT-30"/>
       <use xlink:href="#ArialMT-2e" transform="translate(55.615234 0)"/>
       <use xlink:href="#ArialMT-30" transform="translate(83.398438 0)"/>
      </g>
     </g>
    </g>
    <g id="ytick_3">
     <g id="line2d_8">
      <g>
       <use xlink:href="#md8e63d9d59" x="56.692913" y="67.516297" style="stroke: #000000; stroke-width: 0.566929"/>
      </g>
     </g>
     <g id="text_6">
      <!-- 0.8 -->
      <g transform="translate(43.195197 70.021531) scale(0.07 -0.07)">
       <use xlink:href="#ArialMT-30"/>
       <use xlink:href="#ArialMT-2e" transform="translate(55.615234 0)"/>
       <use xlink:href="#ArialMT-38" transform="translate(83.398438 0)"/>
      </g>
     </g>
    </g>
   </g>
   <g id="text_7">
    <!-- Trigonometric Functions -->
    <g transform="translate(70.634577 50.692913) scale(0.08 -0.08)">
     <defs>
      <path id="ArialMT-54" d="M 1659 0 
L 1659 4041 
L 150 4041 
L 150 4581 
L 3781 4581 
L 3781 4041 
L 2266 4041 
L 2266 0 
L 1659 0 
z
" transform="scale(0.015625)"/>
      <path id="ArialMT-72" d="M 416 0 
L 416 3319 
L 922 3319 
L 922 2816 
Q 1116 3169 1280 3281 
Q 1444 3394 1641 3394 
Q 1925 3394 2219 3213 
L 2025 2691 
Q 1819 2813 1613 2813 
Q 1428 2813 1281 2702 
Q 1134 2591 1072 2394 
Q 978 2094 978 1738 
L 978 0 
L 416 0 
z
" transform="scale(0.015625)"/>
      <path id="ArialMT-69" d="M 425 3934 
L 425 4581 
L 988 4581 
L 988 3934 
L 425 3934 
z
M 425 0 
L 425 3319 
L 988 3319 
L 988 0 
L 425 0 
z
" transform="scale(0.015625)"/>
      <path id="ArialMT-67" d="M 319 -275 
L 866 -356 
Q 900 -609 1056 -725 
Q 1266 -881 1628 -881 
Q 2019 -881 2231 -725 
Q 2444 -569 2519 -288 
Q 2563 -116 2559 434 
Q 2191 0 1641 0 
Q 956 0 581 494 
Q 206 988 206 1678 
Q 206 2153 378 2554 
Q 550 2956 876 3175 
Q 1203 3394 1644 3394 
Q 2231 3394 2613 2919 
L 2613 3319 
L 3131 3319 
L 3131 450 
Q 3131 -325 2973 -648 
Q 2816 -972 2473 -1159 
Q 2131 -1347 1631 -1347 
Q 1038 -1347 672 -1080 
Q 306 -813 319 -275 
z
M 784 1719 
Q 784 1066 1043 766 
Q 1303 466 1694 466 
Q 2081 466 2343 764 
Q 2606 1063 2606 1700 
Q 2606 2309 2336 2618 
Q 2066 2928 1684 2928 
Q 1309 2928 1046 2623 
Q 784 2319 784 1719 
z
" transform="scale(0.015625)"/>
      <path id="ArialMT-6f" d="M 213 1659 
Q 213 2581 725 3025 
Q 1153 3394 1769 3394 
Q 2453 3394 2887 2945 
Q 3322 2497 3322 1706 
Q 3322 1066 3130 698 
Q 2938 331 2570 128 
Q 2203 -75 1769 -75 
Q 1072 -75 642 372 
Q 213 819 213 1659 
z
M 791 1659 
Q 791 1022 1069 705 
Q 1347 388 1769 388 
Q 2188 388 2466 706 
Q 2744 1025 2744 1678 
Q 2744 2294 2464 2611 
Q 2184 2928 1769 2928 
Q 1347 2928 1069 2612 
Q 791 2297 791 1659 
z
" transform="scale(0.015625)"/>
      <path id="ArialMT-6e" d="M 422 0 
L 422 3319 
L 928 3319 
L 928 2847 
Q 1294 3394 1984 3394 
Q 2284 3394 2536 3286 
Q 2788 3178 2913 3003 
Q 3038 2828 3088 2588 
Q 3119 2431 3119 2041 
L 3119 0 
L 2556 0 
L 2556 2019 
Q 2556 2363 2490 2533 
Q 2425 2703 2258 2804 
Q 2091 2906 1866 2906 
Q 1506 2906 1245 2678 
Q 984 2450 984 1813 
L 984 0 
L 422 0 
z
" transform="scale(0.015625)"/>
      <path id="ArialMT-6d" d="M 422 0 
L 422 3319 
L 925 3319 
L 925 2853 
Q 1081 3097 1340 3245 
Q 1600 3394 1931 3394 
Q 2300 3394 2536 3241 
Q 2772 3088 2869 2813 
Q 3263 3394 3894 3394 
Q 4388 3394 4653 3120 
Q 4919 2847 4919 2278 
L 4919 0 
L 4359 0 
L 4359 2091 
Q 4359 2428 4304 2576 
Q 4250 2725 4106 2815 
Q 3963 2906 3769 2906 
Q 3419 2906 3187 2673 
Q 2956 2441 2956 1928 
L 2956 0 
L 2394 0 
L 2394 2156 
Q 2394 2531 2256 2718 
Q 2119 2906 1806 2906 
Q 1569 2906 1367 2781 
Q 1166 2656 1075 2415 
Q 984 2175 984 1722 
L 984 0 
L 422 0 
z
" transform="scale(0.015625)"/>
      <path id="ArialMT-65" d="M 2694 1069 
L 3275 997 
Q 3138 488 2766 206 
Q 2394 -75 1816 -75 
Q 1088 -75 661 373 
Q 234 822 234 1631 
Q 234 2469 665 2931 
Q 1097 3394 1784 3394 
Q 2450 3394 2872 2941 
Q 3294 2488 3294 1666 
Q 3294 1616 3291 1516 
L 816 1516 
Q 847 969 1125 678 
Q 1403 388 1819 388 
Q 2128 388 2347 550 
Q 2566 713 2694 1069 
z
M 847 1978 
L 2700 1978 
Q 2663 2397 2488 2606 
Q 2219 2931 1791 2931 
Q 1403 2931 1139 2672 
Q 875 2413 847 1978 
z
" transform="scale(0.015625)"/>
      <path id="ArialMT-74" d="M 1650 503 
L 1731 6 
Q 1494 -44 1306 -44 
Q 1000 -44 831 53 
Q 663 150 594 308 
Q 525 466 525 972 
L 525 2881 
L 113 2881 
L 113 3319 
L 525 3319 
L 525 4141 
L 1084 4478 
L 1084 3319 
L 1650 3319 
L 1650 2881 
L 1084 2881 
L 1084 941 
Q 1084 700 1114 631 
Q 1144 563 1211 522 
Q 1278 481 1403 481 
Q 1497 481 1650 503 
z
" transform="scale(0.015625)"/>
      <path id="ArialMT-63" d="M 2588 1216 
L 3141 1144 
Q 3050 572 2676 248 
Q 2303 -75 1759 -75 
Q 1078 -75 664 370 
Q 250 816 250 1647 
Q 250 2184 428 2587 
Q 606 2991 970 3192 
Q 1334 3394 1763 3394 
Q 2303 3394 2647 3120 
Q 2991 2847 3088 2344 
L 2541 2259 
Q 2463 2594 2264 2762 
Q 2066 2931 1784 2931 
Q 1359 2931 1093 2626 
Q 828 2322 828 1663 
Q 828 994 1084 691 
Q 1341 388 1753 388 
Q 2084 388 2306 591 
Q 2528 794 2588 1216 
z
" transform="scale(0.015625)"/>
      <path id="ArialMT-20" transform="scale(0.015625)"/>
      <path id="ArialMT-46" d="M 525 0 
L 525 4581 
L 3616 4581 
L 3616 4041 
L 1131 4041 
L 1131 2622 
L 3281 2622 
L 3281 2081 
L 1131 2081 
L 1131 0 
L 525 0 
z
" transform="scale(0.015625)"/>
      <path id="ArialMT-75" d="M 2597 0 
L 2597 488 
Q 2209 -75 1544 -75 
Q 1250 -75 995 37 
Q 741 150 617 320 
Q 494 491 444 738 
Q 409 903 409 1263 
L 409 3319 
L 972 3319 
L 972 1478 
Q 972 1038 1006 884 
Q 1059 663 1231 536 
Q 1403 409 1656 409 
Q 1909 409 2131 539 
Q 2353 669 2445 892 
Q 2538 1116 2538 1541 
L 2538 3319 
L 3100 3319 
L 3100 0 
L 2597 0 
z
" transform="scale(0.015625)"/>
      <path id="ArialMT-73" d="M 197 991 
L 753 1078 
Q 800 744 1014 566 
Q 1228 388 1613 388 
Q 2000 388 2187 545 
Q 2375 703 2375 916 
Q 2375 1106 2209 1216 
Q 2094 1291 1634 1406 
Q 1016 1563 777 1677 
Q 538 1791 414 1992 
Q 291 2194 291 2438 
Q 291 2659 392 2848 
Q 494 3038 669 3163 
Q 800 3259 1026 3326 
Q 1253 3394 1513 3394 
Q 1903 3394 2198 3281 
Q 2494 3169 2634 2976 
Q 2775 2784 2828 2463 
L 2278 2388 
Q 2241 2644 2061 2787 
Q 1881 2931 1553 2931 
Q 1166 2931 1000 2803 
Q 834 2675 834 2503 
Q 834 2394 903 2306 
Q 972 2216 1119 2156 
Q 1203 2125 1616 2013 
Q 2213 1853 2448 1751 
Q 2684 1650 2818 1456 
Q 2953 1263 2953 975 
Q 2953 694 2789 445 
Q 2625 197 2315 61 
Q 2006 -75 1616 -75 
Q 969 -75 630 194 
Q 291 463 197 991 
z
" transform="scale(0.015625)"/>
     </defs>
     <use xlink:href="#ArialMT-54"/>
     <use xlink:href="#ArialMT-72" transform="translate(57.333984 0)"/>
     <use xlink:href="#ArialMT-69" transform="translate(90.634766 0)"/>
     <use xlink:href="#ArialMT-67" transform="translate(112.851562 0)"/>
     <use xlink:href="#ArialMT-6f" transform="translate(168.466797 0)"/>
     <use xlink:href="#ArialMT-6e" transform="translate(224.082031 0)"/>
     <use xlink:href="#ArialMT-6f" transform="translate(279.697266 0)"/>
     <use xlink:href="#ArialMT-6d" transform="translate(335.3125 0)"/>
     <use xlink:href="#ArialMT-65" transform="translate(418.613281 0)"/>
     <use xlink:href="#ArialMT-74" transform="translate(474.228516 0)"/>
     <use xlink:href="#ArialMT-72" transform="translate(502.011719 0)"/>
     <use xlink:href="#ArialMT-69" transform="translate(535.3125 0)"/>
     <use xlink:href="#ArialMT-63" transform="translate(557.529297 0)"/>
     <use xlink:href="#ArialMT-20" transform="translate(607.529297 0)"/>
     <use xlink:href="#ArialMT-46" transform="translate(635.3125 0)"/>
     <use xlink:href="#ArialMT-75" transform="translate(696.396484 0)"/>
     <use xlink:href="#ArialMT-6e" transform="translate(752.011719 0)"/>
     <use xlink:href="#ArialMT-63" transform="translate(807.626953 0)"/>
     <use xlink:href="#ArialMT-74" transform="translate(857.626953 0)"/>
     <use xlink:href="#ArialMT-69" transform="translate(885.410156 0)"/>
     <use xlink:href="#ArialMT-6f" transform="translate(907.626953 0)"/>
     <use xlink:href="#ArialMT-6e" transform="translate(963.242188 0)"/>
     <use xlink:href="#ArialMT-73" transform="translate(1018.857422 0)"/>
    </g>
   </g>
   <g id="legend_1">
    <g id="line2d_9">
     <path d="M 131.546553 91.51514 
L 137.546553 91.51514 
L 143.546553 91.51514 
" style="fill: none; stroke: #0080bf; stroke-opacity: 0.9; stroke-width: 0.566929; stroke-linecap: square"/>
    </g>
    <g id="text_8">
     <!-- sin(x) -->
     <g transform="translate(148.346553 93.61514) scale(0.06 -0.06)">
      <defs>
       <path id="ArialMT-28" d="M 1497 -1347 
Q 1031 -759 709 28 
Q 388 816 388 1659 
Q 388 2403 628 3084 
Q 909 3875 1497 4659 
L 1900 4659 
Q 1522 4009 1400 3731 
Q 1209 3300 1100 2831 
Q 966 2247 966 1656 
Q 966 153 1900 -1347 
L 1497 -1347 
z
" transform="scale(0.015625)"/>
       <path id="ArialMT-78" d="M 47 0 
L 1259 1725 
L 138 3319 
L 841 3319 
L 1350 2541 
Q 1494 2319 1581 2169 
Q 1719 2375 1834 2534 
L 2394 3319 
L 3066 3319 
L 1919 1756 
L 3153 0 
L 2463 0 
L 1781 1031 
L 1600 1309 
L 728 0 
L 47 0 
z
" transform="scale(0.015625)"/>
       <path id="ArialMT-29" d="M 791 -1347 
L 388 -1347 
Q 1322 153 1322 1656 
Q 1322 2244 1188 2822 
Q 1081 3291 891 3722 
Q 769 4003 388 4659 
L 791 4659 
Q 1378 3875 1659 3084 
Q 1900 2403 1900 1659 
Q 1900 816 1576 28 
Q 1253 -759 791 -1347 
z
" transform="scale(0.015625)"/>
      </defs>
      <use xlink:href="#ArialMT-73"/>
      <use xlink:href="#ArialMT-69" transform="translate(50 0)"/>
      <use xlink:href="#ArialMT-6e" transform="translate(72.216797 0)"/>
      <use xlink:href="#ArialMT-28" transform="translate(127.832031 0)"/>
      <use xlink:href="#ArialMT-78" transform="translate(161.132812 0)"/>
      <use xlink:href="#ArialMT-29" transform="translate(211.132812 0)"/>
     </g>
    </g>
    <g id="line2d_10">
     <path d="M 131.546553 100.145765 
L 137.546553 100.145765 
L 143.546553 100.145765 
" style="fill: none; stroke: #ff4533; stroke-opacity: 0.9; stroke-width: 0.566929; stroke-linecap: square"/>
    </g>
    <g id="text_9">
     <!-- cos(x) -->
     <g transform="translate(148.346553 102.245765) scale(0.06 -0.06)">
      <use xlink:href="#ArialMT-63"/>
      <use xlink:href="#ArialMT-6f" transform="translate(50 0)"/>
      <use xlink:href="#ArialMT-73" transform="translate(105.615234 0)"/>
      <use xlink:href="#ArialMT-28" transform="translate(155.615234 0)"/>
      <use xlink:href="#ArialMT-78" transform="translate(188.916016 0)"/>
      <use xlink:href="#ArialMT-29" transform="translate(238.916016 0)"/>
     </g>
    </g>
   </g>
   <g id="patch_3">
    <path d="M 56.692913 136.062992 
L 56.692913 56.692913 
" style="fill: none; stroke: #404040; stroke-width: 0.566929; stroke-linejoin: miter; stroke-linecap: square"/>
   </g>
   <g id="patch_4">
    <path d="M 56.692913 136.062992 
L 170.07874 136.062992 
" style="fill: none; stroke: #404040; stroke-width: 0.566929; stroke-linejoin: miter; stroke-linecap: square"/>
   </g>
  </g>
 </g>
 <defs>
  <clipPath id="p1be843fcdc">
   <rect x="56.692913" y="56.692913" width="113.385827" height="79.370079"/>
  </clipPath>
 </defs>
</svg>
