<?xml version="1.0" encoding="utf-8" standalone="no"?>
<!DOCTYPE svg PUBLIC "-//W3C//DTD SVG 1.1//EN"
  "http://www.w3.org/Graphics/SVG/1.1/DTD/svg11.dtd">
<svg xmlns:xlink="http://www.w3.org/1999/xlink" width="145.371981pt" height="115.665764pt" viewBox="0 0 145.371981 115.665764" xmlns="http://www.w3.org/2000/svg" version="1.1">
 <metadata>
  <rdf:RDF xmlns:dc="http://purl.org/dc/elements/1.1/" xmlns:cc="http://creativecommons.org/ns#" xmlns:rdf="http://www.w3.org/1999/02/22-rdf-syntax-ns#">
   <cc:Work>
    <dc:type rdf:resource="http://purl.org/dc/dcmitype/StillImage"/>
    <dc:date>2025-12-21T10:49:47.019386</dc:date>
    <dc:format>image/svg+xml</dc:format>
    <dc:creator>
     <cc:Agent>
      <dc:title>Matplotlib v3.10.3, https://matplotlib.org/</dc:title>
     </cc:Agent>
    </dc:creator>
   </cc:Work>
  </rdf:RDF>
 </metadata>
 <defs>
  <style type="text/css">*{stroke-linejoin: round; stroke-linecap: butt}</style>
 </defs>
 <g id="figure_1">
  <g id="patch_1">
   <path d="M 0 115.665764 
L 145.371981 115.665764 
L 145.371981 0 
L 0 0 
L 0 115.665764 
z
" style="fill: none; opacity: 0"/>
  </g>
  <g id="axes_1">
   <g id="patch_2">
    <path d="M 24.786154 98.296329 
L 138.171981 98.296329 
L 138.171981 18.92625 
L 24.786154 18.92625 
L 24.786154 98.296329 
z
" style="fill: none; opacity: 0"/>
   </g>
   <g id="line2d_1">
    <path d="M 29.940055 58.612242 
L 30.981247 54.974168 
L 32.02244 51.373181 
L 33.063632 47.845991 
L 34.104824 44.428557 
L 35.146016 41.155716 
L 36.187208 38.060834 
L 37.2284 35.17546 
L 38.269593 32.52901 
L 39.310785 30.148462 
L 40.351977 28.058084 
L 41.393169 26.279186 
L 42.434361 24.829903 
L 43.475553 23.72501 
L 44.516746 22.97577 
L 45.557938 22.589822 
L 46.59913 22.571099 
L 47.640322 22.919793 
L 48.681514 23.632349 
L 49.722706 24.701503 
L 50.763899 26.116356 
L 51.805091 27.862483 
L 52.846283 29.922085 
L 53.887475 32.274165 
L 54.928667 34.894745 
L 55.969859 37.75711 
L 57.011052 40.83208 
L 58.052244 44.088307 
L 59.093436 47.492597 
L 60.134628 51.010244 
L 61.17582 54.605389 
L 62.217012 58.241382 
L 63.258205 61.881155 
L 64.299397 65.487603 
L 65.340589 69.023962 
L 66.381781 72.45418 
L 67.422973 75.743287 
L 68.464165 78.857755 
L 69.505358 81.765833 
L 70.54655 84.437874 
L 71.587742 86.846639 
L 72.628934 88.967573 
L 73.670126 90.779053 
L 74.711318 92.262612 
L 75.752511 93.403128 
L 76.793703 94.188972 
L 77.834895 94.612134 
L 78.876087 94.6683 
L 79.917279 94.356897 
L 80.958471 93.6811 
L 81.999664 92.647798 
L 83.040856 91.267525 
L 84.082048 89.554353 
L 85.12324 87.525745 
L 86.164432 85.202382 
L 87.205624 82.607949 
L 88.246816 79.768895 
L 89.288009 76.714163 
L 90.329201 73.474893 
L 91.370393 70.084107 
L 92.411585 66.576373 
L 93.452777 62.98745 
L 94.493969 59.353925 
L 95.535162 55.712838 
L 96.576354 52.101309 
L 97.617546 48.556155 
L 98.658738 45.113516 
L 99.69993 41.808489 
L 100.741122 38.674765 
L 101.782315 35.744291 
L 102.823507 33.046941 
L 103.864699 30.610213 
L 104.905891 28.458949 
L 105.947083 26.615078 
L 106.988275 25.097398 
L 108.029468 23.921381 
L 109.07066 23.099015 
L 110.111852 22.638684 
L 111.153044 22.545081 
L 112.194236 22.819159 
L 113.235428 23.458126 
L 114.276621 24.455466 
L 115.317813 25.801014 
L 116.359005 27.481051 
L 117.400197 29.478451 
L 118.441389 31.772851 
L 119.482581 34.340862 
L 120.523774 37.156305 
L 121.564966 40.190477 
L 122.606158 43.412448 
L 123.64735 46.789371 
L 124.688542 50.28682 
L 125.729734 53.869142 
L 126.770927 57.499817 
L 127.812119 61.141832 
L 128.853311 64.75806 
L 129.894503 68.311635 
L 130.935695 71.766331 
L 131.976887 75.086929 
L 133.01808 78.239578 
" clip-path="url(#pa4ffb46764)" style="fill: none; stroke: #0080bf; stroke-opacity: 0.9; stroke-width: 0.566929; stroke-linecap: square"/>
   </g>
   <g id="line2d_2">
    <path d="M 29.940055 22.533981 
L 30.981247 22.717878 
L 32.02244 23.267696 
L 33.063632 24.17783 
L 34.104824 25.439 
L 35.146016 27.03835 
L 36.187208 28.959577 
L 37.2284 31.183094 
L 38.269593 33.686233 
L 39.310785 36.443477 
L 40.351977 39.426718 
L 41.393169 42.605544 
L 42.434361 45.947547 
L 43.475553 49.418659 
L 44.516746 52.983494 
L 45.557938 56.60571 
L 46.59913 60.248382 
L 47.640322 63.874374 
L 48.681514 67.446722 
L 49.722706 70.929008 
L 50.763899 74.285733 
L 51.805091 77.482676 
L 52.846283 80.487247 
L 53.887475 83.268816 
L 54.928667 85.799028 
L 55.969859 88.052086 
L 57.011052 90.005025 
L 58.052244 91.637933 
L 59.093436 92.934166 
L 60.134628 93.880508 
L 61.17582 94.467313 
L 62.217012 94.688598 
L 63.258205 94.542107 
L 64.299397 94.029334 
L 65.340589 93.155506 
L 66.381781 91.929531 
L 67.422973 90.363908 
L 68.464165 88.474596 
L 69.505358 86.280857 
L 70.54655 83.805053 
L 71.587742 81.072425 
L 72.628934 78.110829 
L 73.670126 74.950458 
L 74.711318 71.623529 
L 75.752511 68.163958 
L 76.793703 64.607013 
L 77.834895 60.988955 
L 78.876087 57.346669 
L 79.917279 53.717284 
L 80.958471 50.1378 
L 81.999664 46.644707 
L 83.040856 43.273616 
L 84.082048 40.058893 
L 85.12324 37.033309 
L 86.164432 34.227709 
L 87.205624 31.670694 
L 88.246816 29.388331 
L 89.288009 27.403887 
L 90.329201 25.737593 
L 91.370393 24.406435 
L 92.411585 23.423983 
L 93.452777 22.800254 
L 94.493969 22.541605 
L 95.535162 22.650674 
L 96.576354 23.126348 
L 97.617546 23.963778 
L 98.658738 25.154428 
L 99.69993 26.686159 
L 100.741122 28.543356 
L 101.782315 30.707086 
L 102.823507 33.155292 
L 103.864699 35.863015 
L 104.905891 38.802653 
L 105.947083 41.944236 
L 106.988275 45.25574 
L 108.029468 48.703404 
L 109.07066 52.252083 
L 110.111852 55.8656 
L 111.153044 59.507117 
L 112.194236 63.139511 
L 113.235428 66.725753 
L 114.276621 70.229282 
L 115.317813 73.614383 
L 116.359005 76.846547 
L 117.400197 79.892824 
L 118.441389 82.722158 
L 119.482581 85.305707 
L 120.523774 87.617134 
L 121.564966 89.632873 
L 122.606158 91.332377 
L 123.64735 92.69832 
L 124.688542 93.716776 
L 125.729734 94.377365 
L 126.770927 94.67335 
L 127.812119 94.601715 
L 128.853311 94.16319 
L 129.894503 93.362246 
L 130.935695 92.207047 
L 131.976887 90.709371 
L 133.01808 88.884485 
" clip-path="url(#pa4ffb46764)" style="fill: none; stroke: #ff4533; stroke-opacity: 0.9; stroke-width: 0.566929; stroke-linecap: square"/>
   </g>
   <g id="matplotlib.axis_1">
    <g id="xtick_1">
     <g id="line2d_3">
      <defs>
       <path id="m11ce41f9a0" d="M 0 0 
L 0 2.267717 
" style="stroke: #000000; stroke-width: 0.566929"/>
      </defs>
      <g>
       <use xlink:href="#m11ce41f9a0" x="29.940055" y="98.296329" style="stroke: #000000; stroke-width: 0.566929"/>
      </g>
     </g>
     <g id="text_1">
      <!-- 0 -->
      <g transform="translate(27.993727 107.074514) scale(0.07 -0.07)">
       <defs>
        <path id="ArialMT-30" d="M 266 2259 
Q 266 3072 433 3567 
Q 600 4063 929 4331 
Q 1259 4600 1759 4600 
Q 2128 4600 2406 4451 
Q 2684 4303 2865 4023 
Q 3047 3744 3150 3342 
Q 3253 2941 3253 2259 
Q 3253 1453 3087 958 
Q 2922 463 2592 192 
Q 2263 -78 1759 -78 
Q 1097 -78 719 397 
Q 266 969 266 2259 
z
M 844 2259 
Q 844 1131 1108 757 
Q 1372 384 1759 384 
Q 2147 384 2411 759 
Q 2675 1134 2675 2259 
Q 2675 3391 2411 3762 
Q 2147 4134 1753 4134 
Q 1366 4134 1134 3806 
Q 844 3388 844 2259 
z
" transform="scale(0.015625)"/>
       </defs>
       <use xlink:href="#ArialMT-30"/>
      </g>
     </g>
    </g>
    <g id="xtick_2">
     <g id="line2d_4">
      <g>
       <use xlink:href="#m11ce41f9a0" x="71.171265" y="98.296329" style="stroke: #000000; stroke-width: 0.566929"/>
      </g>
     </g>
     <g id="text_2">
      <!-- 4 -->
      <g transform="translate(69.224937 107.074514) scale(0.07 -0.07)">
       <defs>
        <path id="ArialMT-34" d="M 2069 0 
L 2069 1097 
L 81 1097 
L 81 1613 
L 2172 4581 
L 2631 4581 
L 2631 1613 
L 3250 1613 
L 3250 1097 
L 2631 1097 
L 2631 0 
L 2069 0 
z
M 2069 1613 
L 2069 3678 
L 634 1613 
L 2069 1613 
z
" transform="scale(0.015625)"/>
       </defs>
       <use xlink:href="#ArialMT-34"/>
      </g>
     </g>
    </g>
    <g id="xtick_3">
     <g id="line2d_5">
      <g>
       <use xlink:href="#m11ce41f9a0" x="112.402475" y="98.296329" style="stroke: #000000; stroke-width: 0.566929"/>
      </g>
     </g>
     <g id="text_3">
      <!-- 8 -->
      <g transform="translate(110.456147 107.074514) scale(0.07 -0.07)">
       <defs>
        <path id="ArialMT-38" d="M 1131 2484 
Q 781 2613 612 2850 
Q 444 3088 444 3419 
Q 444 3919 803 4259 
Q 1163 4600 1759 4600 
Q 2359 4600 2725 4251 
Q 3091 3903 3091 3403 
Q 3091 3084 2923 2848 
Q 2756 2613 2416 2484 
Q 2838 2347 3058 2040 
Q 3278 1734 3278 1309 
Q 3278 722 2862 322 
Q 2447 -78 1769 -78 
Q 1091 -78 675 323 
Q 259 725 259 1325 
Q 259 1772 486 2073 
Q 713 2375 1131 2484 
z
M 1019 3438 
Q 1019 3113 1228 2906 
Q 1438 2700 1772 2700 
Q 2097 2700 2305 2904 
Q 2513 3109 2513 3406 
Q 2513 3716 2298 3927 
Q 2084 4138 1766 4138 
Q 1444 4138 1231 3931 
Q 1019 3725 1019 3438 
z
M 838 1322 
Q 838 1081 952 856 
Q 1066 631 1291 507 
Q 1516 384 1775 384 
Q 2178 384 2440 643 
Q 2703 903 2703 1303 
Q 2703 1709 2433 1975 
Q 2163 2241 1756 2241 
Q 1359 2241 1098 1978 
Q 838 1716 838 1322 
z
" transform="scale(0.015625)"/>
       </defs>
       <use xlink:href="#ArialMT-38"/>
      </g>
     </g>
    </g>
   </g>
   <g id="matplotlib.axis_2">
    <g id="ytick_1">
     <g id="line2d_6">
      <defs>
       <path id="mcd4c0ba43b" d="M 0 0 
L -2.267717 0 
" style="stroke: #000000; stroke-width: 0.566929"/>
      </defs>
      <g>
       <use xlink:href="#mcd4c0ba43b" x="24.786154" y="87.474852" style="stroke: #000000; stroke-width: 0.566929"/>
      </g>
     </g>
     <g id="text_4">
      <!-- −0.8 -->
      <g transform="translate(7.2 89.980086) scale(0.07 -0.07)">
       <defs>
        <path id="ArialMT-2212" d="M 3381 1997 
L 356 1997 
L 356 2522 
L 3381 2522 
L 3381 1997 
z
" transform="scale(0.015625)"/>
        <path id="ArialMT-2e" d="M 581 0 
L 581 641 
L 1222 641 
L 1222 0 
L 581 0 
z
" transform="scale(0.015625)"/>
       </defs>
       <use xlink:href="#ArialMT-2212"/>
       <use xlink:href="#ArialMT-30" transform="translate(58.398438 0)"/>
       <use xlink:href="#ArialMT-2e" transform="translate(114.013672 0)"/>
       <use xlink:href="#ArialMT-38" transform="translate(141.796875 0)"/>
      </g>
     </g>
    </g>
    <g id="ytick_2">
     <g id="line2d_7">
      <g>
       <use xlink:href="#mcd4c0ba43b" x="24.786154" y="58.612242" style="stroke: #000000; stroke-width: 0.566929"/>
      </g>
     </g>
     <g id="text_5">
      <!-- 0.0 -->
      <g transform="translate(11.288438 61.117477) scale(0.07 -0.07)">
       <use xlink:href="#ArialMT-30"/>
       <use xlink:href="#ArialMT-2e" transform="translate(55.615234 0)"/>
       <use xlink:href="#ArialMT-30" transform="translate(83.398438 0)"/>
      </g>
     </g>
    </g>
    <g id="ytick_3">
     <g id="line2d_8">
      <g>
       <use xlink:href="#mcd4c0ba43b" x="24.786154" y="29.749633" style="stroke: #000000; stroke-width: 0.566929"/>
      </g>
     </g>
     <g id="text_6">
      <!-- 0.8 -->
      <g transform="translate(11.288438 32.254868) scale(0.07 -0.07)">
       <use xlink:href="#ArialMT-30"/>
       <use xlink:href="#ArialMT-2e" transform="translate(55.615234 0)"/>
       <use xlink:href="#ArialMT-38" transform="translate(83.398438 0)"/>
      </g>
     </g>
    </g>
   </g>
   <g id="text_7">
    <!-- Trigonometric Functions -->
    <g transform="translate(38.727817 12.92625) scale(0.08 -0.08)">
     <defs>
      <path id="ArialMT-54" d="M 1659 0 
L 1659 4041 
L 150 4041 
L 150 4581 
L 3781 4581 
L 3781 4041 
L 2266 4041 
L 2266 0 
L 1659 0 
z
" transform="scale(0.015625)"/>
      <path id="ArialMT-72" d="M 416 0 
L 416 3319 
L 922 3319 
L 922 2816 
Q 1116 3169 1280 3281 
Q 1444 3394 1641 3394 
Q 1925 3394 2219 3213 
L 2025 2691 
Q 1819 2813 1613 2813 
Q 1428 2813 1281 2702 
Q 1134 2591 1072 2394 
Q 978 2094 978 1738 
L 978 0 
L 416 0 
z
" transform="scale(0.015625)"/>
      <path id="ArialMT-69" d="M 425 3934 
L 425 4581 
L 988 4581 
L 988 3934 
L 425 3934 
z
M 425 0 
L 425 3319 
L 988 3319 
L 988 0 
L 425 0 
z
" transform="scale(0.015625)"/>
      <path id="ArialMT-67" d="M 319 -275 
L 866 -356 
Q 900 -609 1056 -725 
Q 1266 -881 1628 -881 
Q 2019 -881 2231 -725 
Q 2444 -569 2519 -288 
Q 2563 -116 2559 434 
Q 2191 0 1641 0 
Q 956 0 581 494 
Q 206 988 206 1678 
Q 206 2153 378 2554 
Q 550 2956 876 3175 
Q 1203 3394 1644 3394 
Q 2231 3394 2613 2919 
L 2613 3319 
L 3131 3319 
L 3131 450 
Q 3131 -325 2973 -648 
Q 2816 -972 2473 -1159 
Q 2131 -1347 1631 -1347 
Q 1038 -1347 672 -1080 
Q 306 -813 319 -275 
z
M 784 1719 
Q 784 1066 1043 766 
Q 1303 466 1694 466 
Q 2081 466 2343 764 
Q 2606 1063 2606 1700 
Q 2606 2309 2336 2618 
Q 2066 2928 1684 2928 
Q 1309 2928 1046 2623 
Q 784 2319 784 1719 
z
" transform="scale(0.015625)"/>
      <path id="ArialMT-6f" d="M 213 1659 
Q 213 2581 725 3025 
Q 1153 3394 1769 3394 
Q 2453 3394 2887 2945 
Q 3322 2497 3322 1706 
Q 3322 1066 3130 698 
Q 2938 331 2570 128 
Q 2203 -75 1769 -75 
Q 1072 -75 642 372 
Q 213 819 213 1659 
z
M 791 1659 
Q 791 1022 1069 705 
Q 1347 388 1769 388 
Q 2188 388 2466 706 
Q 2744 1025 2744 1678 
Q 2744 2294 2464 2611 
Q 2184 2928 1769 2928 
Q 1347 2928 1069 2612 
Q 791 2297 791 1659 
z
" transform="scale(0.015625)"/>
      <path id="ArialMT-6e" d="M 422 0 
L 422 3319 
L 928 3319 
L 928 2847 
Q 1294 3394 1984 3394 
Q 2284 3394 2536 3286 
Q 2788 3178 2913 3003 
Q 3038 2828 3088 2588 
Q 3119 2431 3119 2041 
L 3119 0 
L 2556 0 
L 2556 2019 
Q 2556 2363 2490 2533 
Q 2425 2703 2258 2804 
Q 2091 2906 1866 2906 
Q 1506 2906 1245 2678 
Q 984 2450 984 1813 
L 984 0 
L 422 0 
z
" transform="scale(0.015625)"/>
      <path id="ArialMT-6d" d="M 422 0 
L 422 3319 
L 925 3319 
L 925 2853 
Q 1081 3097 1340 3245 
Q 1600 3394 1931 3394 
Q 2300 3394 2536 3241 
Q 2772 3088 2869 2813 
Q 3263 3394 3894 3394 
Q 4388 3394 4653 3120 
Q 4919 2847 4919 2278 
L 4919 0 
L 4359 0 
L 4359 2091 
Q 4359 2428 4304 2576 
Q 4250 2725 4106 2815 
Q 3963 2906 3769 2906 
Q 3419 2906 3187 2673 
Q 2956 2441 2956 1928 
L 2956 0 
L 2394 0 
L 2394 2156 
Q 2394 2531 2256 2718 
Q 2119 2906 1806 2906 
Q 1569 2906 1367 2781 
Q 1166 2656 1075 2415 
Q 984 2175 984 1722 
L 984 0 
L 422 0 
z
" transform="scale(0.015625)"/>
      <path id="ArialMT-65" d="M 2694 1069 
L 3275 997 
Q 3138 488 2766 206 
Q 2394 -75 1816 -75 
Q 1088 -75 661 373 
Q 234 822 234 1631 
Q 234 2469 665 2931 
Q 1097 3394 1784 3394 
Q 2450 3394 2872 2941 
Q 3294 2488 3294 1666 
Q 3294 1616 3291 1516 
L 816 1516 
Q 847 969 1125 678 
Q 1403 388 1819 388 
Q 2128 388 2347 550 
Q 2566 713 2694 1069 
z
M 847 1978 
L 2700 1978 
Q 2663 2397 2488 2606 
Q 2219 2931 1791 2931 
Q 1403 2931 1139 2672 
Q 875 2413 847 1978 
z
" transform="scale(0.015625)"/>
      <path id="ArialMT-74" d="M 1650 503 
L 1731 6 
Q 1494 -44 1306 -44 
Q 1000 -44 831 53 
Q 663 150 594 308 
Q 525 466 525 972 
L 525 2881 
L 113 2881 
L 113 3319 
L 525 3319 
L 525 4141 
L 1084 4478 
L 1084 3319 
L 1650 3319 
L 1650 2881 
L 1084 2881 
L 1084 941 
Q 1084 700 1114 631 
Q 1144 563 1211 522 
Q 1278 481 1403 481 
Q 1497 481 1650 503 
z
" transform="scale(0.015625)"/>
      <path id="ArialMT-63" d="M 2588 1216 
L 3141 1144 
Q 3050 572 2676 248 
Q 2303 -75 1759 -75 
Q 1078 -75 664 370 
Q 250 816 250 1647 
Q 250 2184 428 2587 
Q 606 2991 970 3192 
Q 1334 3394 1763 3394 
Q 2303 3394 2647 3120 
Q 2991 2847 3088 2344 
L 2541 2259 
Q 2463 2594 2264 2762 
Q 2066 2931 1784 2931 
Q 1359 2931 1093 2626 
Q 828 2322 828 1663 
Q 828 994 1084 691 
Q 1341 388 1753 388 
Q 2084 388 2306 591 
Q 2528 794 2588 1216 
z
" transform="scale(0.015625)"/>
      <path id="ArialMT-20" transform="scale(0.015625)"/>
      <path id="ArialMT-46" d="M 525 0 
L 525 4581 
L 3616 4581 
L 3616 4041 
L 1131 4041 
L 1131 2622 
L 3281 2622 
L 3281 2081 
L 1131 2081 
L 1131 0 
L 525 0 
z
" transform="scale(0.015625)"/>
      <path id="ArialMT-75" d="M 2597 0 
L 2597 488 
Q 2209 -75 1544 -75 
Q 1250 -75 995 37 
Q 741 150 617 320 
Q 494 491 444 738 
Q 409 903 409 1263 
L 409 3319 
L 972 3319 
L 972 1478 
Q 972 1038 1006 884 
Q 1059 663 1231 536 
Q 1403 409 1656 409 
Q 1909 409 2131 539 
Q 2353 669 2445 892 
Q 2538 1116 2538 1541 
L 2538 3319 
L 3100 3319 
L 3100 0 
L 2597 0 
z
" transform="scale(0.015625)"/>
      <path id="ArialMT-73" d="M 197 991 
L 753 1078 
Q 800 744 1014 566 
Q 1228 388 1613 388 
Q 2000 388 2187 545 
Q 2375 703 2375 916 
Q 2375 1106 2209 1216 
Q 2094 1291 1634 1406 
Q 1016 1563 777 1677 
Q 538 1791 414 1992 
Q 291 2194 291 2438 
Q 291 2659 392 2848 
Q 494 3038 669 3163 
Q 800 3259 1026 3326 
Q 1253 3394 1513 3394 
Q 1903 3394 2198 3281 
Q 2494 3169 2634 2976 
Q 2775 2784 2828 2463 
L 2278 2388 
Q 2241 2644 2061 2787 
Q 1881 2931 1553 2931 
Q 1166 2931 1000 2803 
Q 834 2675 834 2503 
Q 834 2394 903 2306 
Q 972 2216 1119 2156 
Q 1203 2125 1616 2013 
Q 2213 1853 2448 1751 
Q 2684 1650 2818 1456 
Q 2953 1263 2953 975 
Q 2953 694 2789 445 
Q 2625 197 2315 61 
Q 2006 -75 1616 -75 
Q 969 -75 630 194 
Q 291 463 197 991 
z
" transform="scale(0.015625)"/>
     </defs>
     <use xlink:href="#ArialMT-54"/>
     <use xlink:href="#ArialMT-72" transform="translate(57.333984 0)"/>
     <use xlink:href="#ArialMT-69" transform="translate(90.634766 0)"/>
     <use xlink:href="#ArialMT-67" transform="translate(112.851562 0)"/>
     <use xlink:href="#ArialMT-6f" transform="translate(168.466797 0)"/>
     <use xlink:href="#ArialMT-6e" transform="translate(224.082031 0)"/>
     <use xlink:href="#ArialMT-6f" transform="translate(279.697266 0)"/>
     <use xlink:href="#ArialMT-6d" transform="translate(335.3125 0)"/>
     <use xlink:href="#ArialMT-65" transform="translate(418.613281 0)"/>
     <use xlink:href="#ArialMT-74" transform="translate(474.228516 0)"/>
     <use xlink:href="#ArialMT-72" transform="translate(502.011719 0)"/>
     <use xlink:href="#ArialMT-69" transform="translate(535.3125 0)"/>
     <use xlink:href="#ArialMT-63" transform="translate(557.529297 0)"/>
     <use xlink:href="#ArialMT-20" transform="translate(607.529297 0)"/>
     <use xlink:href="#ArialMT-46" transform="translate(635.3125 0)"/>
     <use xlink:href="#ArialMT-75" transform="translate(696.396484 0)"/>
     <use xlink:href="#ArialMT-6e" transform="translate(752.011719 0)"/>
     <use xlink:href="#ArialMT-63" transform="translate(807.626953 0)"/>
     <use xlink:href="#ArialMT-74" transform="translate(857.626953 0)"/>
     <use xlink:href="#ArialMT-69" transform="translate(885.410156 0)"/>
     <use xlink:href="#ArialMT-6f" transform="translate(907.626953 0)"/>
     <use xlink:href="#ArialMT-6e" transform="translate(963.242188 0)"/>
     <use xlink:href="#ArialMT-73" transform="translate(1018.857422 0)"/>
    </g>
   </g>
   <g id="legend_1">
    <g id="line2d_9">
     <path d="M 99.639793 53.748477 
L 105.639793 53.748477 
L 111.639793 53.748477 
" style="fill: none; stroke: #0080bf; stroke-opacity: 0.9; stroke-width: 0.566929; stroke-linecap: square"/>
    </g>
    <g id="text_8">
     <!-- sin(x) -->
     <g transform="translate(116.439793 55.848477) scale(0.06 -0.06)">
      <defs>
       <path id="ArialMT-28" d="M 1497 -1347 
Q 1031 -759 709 28 
Q 388 816 388 1659 
Q 388 2403 628 3084 
Q 909 3875 1497 4659 
L 1900 4659 
Q 1522 4009 1400 3731 
Q 1209 3300 1100 2831 
Q 966 2247 966 1656 
Q 966 153 1900 -1347 
L 1497 -1347 
z
" transform="scale(0.015625)"/>
       <path id="ArialMT-78" d="M 47 0 
L 1259 1725 
L 138 3319 
L 841 3319 
L 1350 2541 
Q 1494 2319 1581 2169 
Q 1719 2375 1834 2534 
L 2394 3319 
L 3066 3319 
L 1919 1756 
L 3153 0 
L 2463 0 
L 1781 1031 
L 1600 1309 
L 728 0 
L 47 0 
z
" transform="scale(0.015625)"/>
       <path id="ArialMT-29" d="M 791 -1347 
L 388 -1347 
Q 1322 153 1322 1656 
Q 1322 2244 1188 2822 
Q 1081 3291 891 3722 
Q 769 4003 388 4659 
L 791 4659 
Q 1378 3875 1659 3084 
Q 1900 2403 1900 1659 
Q 1900 816 1576 28 
Q 1253 -759 791 -1347 
z
" transform="scale(0.015625)"/>
      </defs>
      <use xlink:href="#ArialMT-73"/>
      <use xlink:href="#ArialMT-69" transform="translate(50 0)"/>
      <use xlink:href="#ArialMT-6e" transform="translate(72.216797 0)"/>
      <use xlink:href="#ArialMT-28" transform="translate(127.832031 0)"/>
      <use xlink:href="#ArialMT-78" transform="translate(161.132812 0)"/>
      <use xlink:href="#ArialMT-29" transform="translate(211.132812 0)"/>
     </g>
    </g>
    <g id="line2d_10">
     <path d="M 99.639793 62.379102 
L 105.639793 62.379102 
L 111.639793 62.379102 
" style="fill: none; stroke: #ff4533; stroke-opacity: 0.9; stroke-width: 0.566929; stroke-linecap: square"/>
    </g>
    <g id="text_9">
     <!-- cos(x) -->
     <g transform="translate(116.439793 64.479102) scale(0.06 -0.06)">
      <use xlink:href="#ArialMT-63"/>
      <use xlink:href="#ArialMT-6f" transform="translate(50 0)"/>
      <use xlink:href="#ArialMT-73" transform="translate(105.615234 0)"/>
      <use xlink:href="#ArialMT-28" transform="translate(155.615234 0)"/>
      <use xlink:href="#ArialMT-78" transform="translate(188.916016 0)"/>
      <use xlink:href="#ArialMT-29" transform="translate(238.916016 0)"/>
     </g>
    </g>
   </g>
   <g id="patch_3">
    <path d="M 24.786154 98.296329 
L 24.786154 18.92625 
" style="fill: none; stroke: #000000; stroke-width: 0.566929; stroke-linejoin: miter; stroke-linecap: square"/>
   </g>
   <g id="patch_4">
    <path d="M 24.786154 98.296329 
L 138.171981 98.296329 
" style="fill: none; stroke: #000000; stroke-width: 0.566929; stroke-linejoin: miter; stroke-linecap: square"/>
   </g>
  </g>
 </g>
 <defs>
  <clipPath id="pa4ffb46764">
   <rect x="24.786154" y="18.92625" width="113.385827" height="79.370079"/>
  </clipPath>
 </defs>
</svg>
